<svg id="Calque_1" data-name="Calque 1" xmlns="http://www.w3.org/2000/svg" xmlns:xlink="http://www.w3.org/1999/xlink" viewBox="0 0 330 84"><defs><style>.cls-1,.cls-10,.cls-11,.cls-12,.cls-13,.cls-14,.cls-15,.cls-16,.cls-17,.cls-18,.cls-19,.cls-2,.cls-21,.cls-22,.cls-23,.cls-24,.cls-25,.cls-26,.cls-27,.cls-28,.cls-29,.cls-3,.cls-30,.cls-31,.cls-32,.cls-33,.cls-34,.cls-35,.cls-36,.cls-37,.cls-38,.cls-39,.cls-4,.cls-40,.cls-41,.cls-42,.cls-43,.cls-44,.cls-45,.cls-46,.cls-47,.cls-48,.cls-49,.cls-5,.cls-50,.cls-51,.cls-52,.cls-53,.cls-54,.cls-55,.cls-56,.cls-57,.cls-58,.cls-59,.cls-6,.cls-60,.cls-61,.cls-62,.cls-63,.cls-64,.cls-65,.cls-66,.cls-67,.cls-7,.cls-8,.cls-9{opacity:0.8;}.cls-1{fill:url(#linear-gradient);}.cls-2{fill:url(#linear-gradient-2);}.cls-3{fill:url(#linear-gradient-3);}.cls-4{fill:url(#linear-gradient-4);}.cls-5{fill:url(#linear-gradient-5);}.cls-6{fill:url(#linear-gradient-6);}.cls-7{fill:url(#linear-gradient-7);}.cls-8{fill:url(#linear-gradient-8);}.cls-9{fill:url(#linear-gradient-9);}.cls-10{fill:url(#linear-gradient-10);}.cls-11{fill:url(#linear-gradient-11);}.cls-12{fill:url(#linear-gradient-12);}.cls-13{fill:url(#linear-gradient-13);}.cls-14{fill:url(#linear-gradient-14);}.cls-15{fill:url(#linear-gradient-15);}.cls-16{fill:url(#linear-gradient-16);}.cls-17{fill:url(#linear-gradient-17);}.cls-18{fill:url(#linear-gradient-18);}.cls-19{fill:url(#linear-gradient-19);}.cls-20{fill:url(#linear-gradient-20);}.cls-21{fill:url(#linear-gradient-21);}.cls-22{fill:url(#linear-gradient-22);}.cls-23{fill:url(#linear-gradient-23);}.cls-24{fill:url(#linear-gradient-24);}.cls-25{fill:url(#linear-gradient-25);}.cls-26{fill:url(#linear-gradient-26);}.cls-27{fill:url(#linear-gradient-27);}.cls-28{fill:url(#linear-gradient-28);}.cls-29{fill:url(#linear-gradient-29);}.cls-30{fill:url(#linear-gradient-30);}.cls-31{fill:url(#linear-gradient-31);}.cls-32{fill:url(#linear-gradient-32);}.cls-33{fill:url(#linear-gradient-33);}.cls-34{fill:url(#linear-gradient-34);}.cls-35{fill:url(#linear-gradient-35);}.cls-36{fill:url(#linear-gradient-36);}.cls-37{fill:url(#linear-gradient-37);}.cls-38{fill:url(#linear-gradient-38);}.cls-39{fill:url(#linear-gradient-39);}.cls-40{fill:url(#linear-gradient-40);}.cls-41{fill:url(#linear-gradient-41);}.cls-42{fill:url(#linear-gradient-42);}.cls-43{fill:url(#linear-gradient-43);}.cls-44{fill:url(#linear-gradient-44);}.cls-45{fill:url(#linear-gradient-45);}.cls-46{fill:url(#linear-gradient-46);}.cls-47{fill:url(#linear-gradient-47);}.cls-48{fill:url(#linear-gradient-48);}.cls-49{fill:url(#linear-gradient-49);}.cls-50{fill:url(#linear-gradient-50);}.cls-51{fill:url(#linear-gradient-51);}.cls-52{fill:url(#linear-gradient-52);}.cls-53{fill:url(#linear-gradient-53);}.cls-54{fill:url(#linear-gradient-54);}.cls-55{fill:url(#linear-gradient-55);}.cls-56{fill:url(#linear-gradient-56);}.cls-57{fill:url(#linear-gradient-57);}.cls-58{fill:url(#linear-gradient-58);}.cls-59{fill:url(#linear-gradient-59);}.cls-60{fill:url(#linear-gradient-60);}.cls-61{fill:url(#linear-gradient-61);}.cls-62{fill:url(#linear-gradient-62);}.cls-63{fill:url(#linear-gradient-63);}.cls-64{fill:url(#linear-gradient-64);}.cls-65{fill:url(#linear-gradient-65);}.cls-66{fill:url(#linear-gradient-66);}.cls-67{fill:url(#linear-gradient-67);}.cls-68{fill:#e5332a;}</style><linearGradient id="linear-gradient" x1="-0.9" y1="50.79" x2="329.86" y2="54.03" gradientUnits="userSpaceOnUse"><stop offset="0" stop-color="#2dab66"/><stop offset="0.35" stop-color="#1d70b7"/><stop offset="0.74" stop-color="#e5332a"/><stop offset="1" stop-color="#ffec00"/></linearGradient><linearGradient id="linear-gradient-2" x1="-0.81" y1="43.63" x2="329.91" y2="46.86" xlink:href="#linear-gradient"/><linearGradient id="linear-gradient-3" x1="-0.76" y1="35.15" x2="330.02" y2="38.39" xlink:href="#linear-gradient"/><linearGradient id="linear-gradient-4" x1="-0.69" y1="29.23" x2="330.07" y2="32.47" xlink:href="#linear-gradient"/><linearGradient id="linear-gradient-5" x1="-0.6" y1="20.77" x2="330.15" y2="24" xlink:href="#linear-gradient"/><linearGradient id="linear-gradient-6" x1="-0.64" y1="18.1" x2="330.21" y2="21.34" xlink:href="#linear-gradient"/><linearGradient id="linear-gradient-7" x1="-0.66" y1="22.76" x2="330.16" y2="25.99" xlink:href="#linear-gradient"/><linearGradient id="linear-gradient-8" x1="-0.92" y1="52.07" x2="329.88" y2="55.31" xlink:href="#linear-gradient"/><linearGradient id="linear-gradient-9" x1="-0.93" y1="51.98" x2="329.88" y2="55.21" xlink:href="#linear-gradient"/><linearGradient id="linear-gradient-10" x1="-0.78" y1="38.05" x2="329.98" y2="41.28" xlink:href="#linear-gradient"/><linearGradient id="linear-gradient-11" x1="-0.83" y1="44.7" x2="329.89" y2="47.93" xlink:href="#linear-gradient"/><linearGradient id="linear-gradient-12" x1="-0.85" y1="44.66" x2="329.95" y2="47.89" xlink:href="#linear-gradient"/><linearGradient id="linear-gradient-13" x1="-0.74" y1="35.41" x2="329.98" y2="38.64" xlink:href="#linear-gradient"/><linearGradient id="linear-gradient-14" x1="-0.68" y1="26.44" x2="330.13" y2="29.67" xlink:href="#linear-gradient"/><linearGradient id="linear-gradient-15" x1="-0.72" y1="32.75" x2="330.02" y2="35.98" xlink:href="#linear-gradient"/><linearGradient id="linear-gradient-16" x1="-0.68" y1="26.28" x2="330.13" y2="29.51" xlink:href="#linear-gradient"/><linearGradient id="linear-gradient-17" x1="-0.56" y1="14.27" x2="330.24" y2="17.51" xlink:href="#linear-gradient"/><linearGradient id="linear-gradient-18" x1="-1.01" y1="60.53" x2="329.8" y2="63.76" xlink:href="#linear-gradient"/><linearGradient id="linear-gradient-19" x1="-0.94" y1="54.1" x2="329.86" y2="57.33" xlink:href="#linear-gradient"/><linearGradient id="linear-gradient-20" x1="-1" y1="60.3" x2="329.79" y2="63.54" xlink:href="#linear-gradient"/><linearGradient id="linear-gradient-21" x1="-1.08" y1="65.68" x2="329.72" y2="68.91" xlink:href="#linear-gradient"/><linearGradient id="linear-gradient-22" x1="-1.03" y1="61.55" x2="329.84" y2="64.78" xlink:href="#linear-gradient"/><linearGradient id="linear-gradient-23" x1="-3.58" y1="54.78" x2="327.22" y2="58.01" xlink:href="#linear-gradient"/><linearGradient id="linear-gradient-24" x1="-1.01" y1="57.74" x2="329.74" y2="60.97" xlink:href="#linear-gradient"/><linearGradient id="linear-gradient-25" x1="-0.54" y1="14.19" x2="330.2" y2="17.42" xlink:href="#linear-gradient"/><linearGradient id="linear-gradient-26" x1="-0.61" y1="18.93" x2="330.2" y2="22.16" xlink:href="#linear-gradient"/><linearGradient id="linear-gradient-27" x1="-0.51" y1="11.55" x2="330.23" y2="14.78" xlink:href="#linear-gradient"/><linearGradient id="linear-gradient-28" x1="-0.65" y1="23.49" x2="330.15" y2="26.72" xlink:href="#linear-gradient"/><linearGradient id="linear-gradient-29" x1="-0.69" y1="29.88" x2="330.05" y2="33.11" xlink:href="#linear-gradient"/><linearGradient id="linear-gradient-30" x1="-0.77" y1="32.33" x2="330.1" y2="35.56" xlink:href="#linear-gradient"/><linearGradient id="linear-gradient-31" x1="-0.78" y1="37.47" x2="330" y2="40.71" xlink:href="#linear-gradient"/><linearGradient id="linear-gradient-32" x1="-0.86" y1="44.06" x2="329.95" y2="47.3" xlink:href="#linear-gradient"/><linearGradient id="linear-gradient-33" x1="-0.85" y1="35.85" x2="329.88" y2="39.08" xlink:href="#linear-gradient"/><linearGradient id="linear-gradient-34" x1="-0.94" y1="53.88" x2="329.84" y2="57.11" xlink:href="#linear-gradient"/><linearGradient id="linear-gradient-35" x1="-0.99" y1="57.94" x2="329.81" y2="61.17" xlink:href="#linear-gradient"/><linearGradient id="linear-gradient-36" x1="-1.01" y1="64.48" x2="329.71" y2="67.71" xlink:href="#linear-gradient"/><linearGradient id="linear-gradient-37" x1="-0.96" y1="59.46" x2="329.76" y2="62.69" xlink:href="#linear-gradient"/><linearGradient id="linear-gradient-38" x1="-1.05" y1="64.36" x2="329.74" y2="67.59" xlink:href="#linear-gradient"/><linearGradient id="linear-gradient-39" x1="-1.03" y1="59.05" x2="329.82" y2="62.28" xlink:href="#linear-gradient"/><linearGradient id="linear-gradient-40" x1="-0.66" y1="28.93" x2="330.06" y2="32.16" xlink:href="#linear-gradient"/><linearGradient id="linear-gradient-41" x1="-0.68" y1="24.16" x2="330.14" y2="27.39" xlink:href="#linear-gradient"/><linearGradient id="linear-gradient-42" x1="-0.64" y1="20.09" x2="330.18" y2="23.32" xlink:href="#linear-gradient"/><linearGradient id="linear-gradient-43" x1="-0.58" y1="14.26" x2="330.24" y2="17.49" xlink:href="#linear-gradient"/><linearGradient id="linear-gradient-44" x1="1.78" y1="34.97" x2="332.57" y2="38.2" xlink:href="#linear-gradient"/><linearGradient id="linear-gradient-45" x1="-0.89" y1="45.64" x2="329.93" y2="48.87" xlink:href="#linear-gradient"/><linearGradient id="linear-gradient-46" x1="-1.11" y1="51.7" x2="329.78" y2="54.93" xlink:href="#linear-gradient"/><linearGradient id="linear-gradient-47" x1="-1.02" y1="49.92" x2="329.77" y2="53.16" xlink:href="#linear-gradient"/><linearGradient id="linear-gradient-48" x1="-0.84" y1="49.64" x2="329.86" y2="52.87" xlink:href="#linear-gradient"/><linearGradient id="linear-gradient-49" x1="-0.96" y1="54.24" x2="329.83" y2="57.47" xlink:href="#linear-gradient"/><linearGradient id="linear-gradient-50" x1="-0.93" y1="54.4" x2="329.83" y2="57.63" xlink:href="#linear-gradient"/><linearGradient id="linear-gradient-51" x1="-1.07" y1="55.24" x2="329.85" y2="58.48" xlink:href="#linear-gradient"/><linearGradient id="linear-gradient-52" x1="-1.05" y1="54.2" x2="329.79" y2="57.43" xlink:href="#linear-gradient"/><linearGradient id="linear-gradient-53" x1="-0.85" y1="42.62" x2="329.81" y2="45.85" xlink:href="#linear-gradient"/><linearGradient id="linear-gradient-54" x1="-0.75" y1="36.72" x2="330" y2="39.95" xlink:href="#linear-gradient"/><linearGradient id="linear-gradient-55" x1="-0.8" y1="41.88" x2="329.89" y2="45.11" xlink:href="#linear-gradient"/><linearGradient id="linear-gradient-56" x1="-0.69" y1="26.8" x2="330.1" y2="30.03" xlink:href="#linear-gradient"/><linearGradient id="linear-gradient-57" x1="-0.94" y1="52.47" x2="329.85" y2="55.7" xlink:href="#linear-gradient"/><linearGradient id="linear-gradient-58" x1="-0.82" y1="32.32" x2="330.09" y2="35.55" xlink:href="#linear-gradient"/><linearGradient id="linear-gradient-59" x1="-0.82" y1="39.99" x2="329.98" y2="43.22" xlink:href="#linear-gradient"/><linearGradient id="linear-gradient-60" x1="-0.8" y1="39.04" x2="329.98" y2="42.28" xlink:href="#linear-gradient"/><linearGradient id="linear-gradient-61" x1="-0.87" y1="50.33" x2="329.86" y2="53.56" xlink:href="#linear-gradient"/><linearGradient id="linear-gradient-62" x1="-0.96" y1="54.46" x2="329.83" y2="57.69" xlink:href="#linear-gradient"/><linearGradient id="linear-gradient-63" x1="-1.06" y1="61.86" x2="329.8" y2="65.09" xlink:href="#linear-gradient"/><linearGradient id="linear-gradient-64" x1="-1.05" y1="64.58" x2="329.74" y2="67.81" xlink:href="#linear-gradient"/><linearGradient id="linear-gradient-65" x1="-1.03" y1="62.09" x2="329.77" y2="65.32" xlink:href="#linear-gradient"/><linearGradient id="linear-gradient-66" x1="-0.96" y1="55.46" x2="329.83" y2="58.69" xlink:href="#linear-gradient"/><linearGradient id="linear-gradient-67" x1="-1.06" y1="69.56" x2="329.66" y2="72.79" xlink:href="#linear-gradient"/></defs><title>Plan de travail 1</title><path class="cls-1" d="M193.54,52.72a2.57,2.57,0,1,1,2.57,2.57A2.57,2.57,0,0,1,193.54,52.72Z"/><path class="cls-2" d="M189.17,45.51a2.57,2.57,0,1,1,2.57,2.57A2.57,2.57,0,0,1,189.17,45.51Z"/><path class="cls-3" d="M200.22,37.14a2.57,2.57,0,1,1,2.57,2.57A2.56,2.56,0,0,1,200.22,37.14Z"/><circle class="cls-4" cx="194.31" cy="31.14" r="2.57"/><path class="cls-5" d="M197.66,22.73a2.57,2.57,0,1,1,2.56,2.57A2.57,2.57,0,0,1,197.66,22.73Z"/><path class="cls-6" d="M207.68,20.16a2.57,2.57,0,1,1,2.57,2.57A2.57,2.57,0,0,1,207.68,20.16Z"/><path class="cls-7" d="M205.91,24.8a2.57,2.57,0,1,1,2.56,2.57A2.56,2.56,0,0,1,205.91,24.8Z"/><path class="cls-8" d="M62.54,52.72a2.57,2.57,0,1,1,2.57,2.57A2.57,2.57,0,0,1,62.54,52.72Z"/><path class="cls-9" d="M72.14,52.72a2.57,2.57,0,1,1,2.57,2.57A2.57,2.57,0,0,1,72.14,52.72Z"/><path class="cls-10" d="M77.21,38.84a2.57,2.57,0,1,1,2.57,2.57A2.57,2.57,0,0,1,77.21,38.84Z"/><path class="cls-11" d="M79.78,45.51a2.57,2.57,0,1,1,2.57,2.57A2.57,2.57,0,0,1,79.78,45.51Z"/><path class="cls-12" d="M84.15,45.51a2.57,2.57,0,1,1,2.57,2.57A2.57,2.57,0,0,1,84.15,45.51Z"/><path class="cls-13" d="M85.22,36.27a2.57,2.57,0,1,1,2.57,2.57A2.57,2.57,0,0,1,85.22,36.27Z"/><path class="cls-14" d="M92.16,27.37a2.57,2.57,0,1,1,2.56,2.57A2.56,2.56,0,0,1,92.16,27.37Z"/><circle class="cls-15" cx="97.29" cy="33.71" r="2.57"/><path class="cls-16" d="M108.16,27.37a2.57,2.57,0,1,1,2.57,2.57A2.57,2.57,0,0,1,108.16,27.37Z"/><path d="M59.62,34v14c0,1.52.44,2.29,1.23,2.29A7.81,7.81,0,0,0,62,50a5,5,0,0,1,.72-.08,1.33,1.33,0,0,1,1.5,1.5c0,1-.61,1.46-1.83,1.46a22.64,22.64,0,0,1-2.29-.18,22.51,22.51,0,0,0-2.41-.18,18.83,18.83,0,0,0-2.14.18,19,19,0,0,1-2.1.18H53.2c-1.25,0-1.88-.53-1.88-1.59s.52-1.37,1.54-1.37h.32a2.93,2.93,0,0,0,.41.05,11.71,11.71,0,0,0,1.31.22,1,1,0,0,0,1-.7,19.79,19.79,0,0,0,.25-3.62l0-3.16v-15a14,14,0,0,0-.13-1.8,1.26,1.26,0,0,0-1.26-1c-.09,0-.48.06-1.16.18a4.72,4.72,0,0,1-.81.09c-1,0-1.53-.49-1.53-1.46s.6-1.5,1.8-1.5a6.82,6.82,0,0,1,.85.05l1.08.16a8.49,8.49,0,0,0,1.21.1,8.79,8.79,0,0,0,1.34-.15A8.1,8.1,0,0,1,59,22.22c.69,0,1,.43,1,1.3a3.76,3.76,0,0,1,0,.67Q59.63,27.66,59.62,34Z"/><path d="M85.73,53.3q-3.69,0-4.53-3.18-2.3,3.36-7.18,3.36a8.88,8.88,0,0,1-5.81-1.79A5.91,5.91,0,0,1,66,46.89a5.81,5.81,0,0,1,3.18-5.47,8.5,8.5,0,0,1,2.09-.88c.58-.13,1.75-.3,3.52-.51a13.43,13.43,0,0,0,4.91-1.13,2.87,2.87,0,0,0,1.14-2.64,3.57,3.57,0,0,0-1.28-2.9,5.45,5.45,0,0,0-3.56-1,6.92,6.92,0,0,0-3.77,1.12,1.22,1.22,0,0,0-.67.94c0,.12.13.27.4.45a1.75,1.75,0,0,1,.63,1.53A1.91,1.91,0,0,1,72,37.83a2.37,2.37,0,0,1-1.64.58,2.6,2.6,0,0,1-2-.81,2.71,2.71,0,0,1-.78-2,5.23,5.23,0,0,1,2.49-4.31,10.06,10.06,0,0,1,6-1.79q8.16,0,8.16,7.83v9A18.83,18.83,0,0,0,84.38,49c.18,1,.69,1.57,1.53,1.57q1.56,0,1.56-2.85V45.49c0-1,.46-1.43,1.37-1.43s1.46.72,1.46,2.16V49C90.24,51.87,88.71,53.3,85.73,53.3Zm-5-8.92V41.19a5.62,5.62,0,0,1-2.08,1.26,20.66,20.66,0,0,1-3.9.63q-5.1.49-5.1,3.76a3.26,3.26,0,0,0,1.24,2.69,5.17,5.17,0,0,0,3.34,1,6.56,6.56,0,0,0,4.73-1.64A6,6,0,0,0,80.7,44.38Z"/><path d="M116.22,26.21a1.61,1.61,0,0,1,.45-1.12,3.14,3.14,0,0,0-2.24-.72,3.82,3.82,0,0,0-3,1.24A5,5,0,0,0,110.3,29v.8a.52.52,0,0,0,.59.59h3.5c1,0,1.48.54,1.48,1.61s-.5,1.62-1.48,1.62h-3.32a.7.7,0,0,0-.77.8V47c0,1.11,0,1.75,0,1.93.15.81.52,1.21,1.12,1.21a6.51,6.51,0,0,0,1.12-.22,7.31,7.31,0,0,1,.9-.09A1.33,1.33,0,0,1,115,51.33c0,1.05-.61,1.57-1.84,1.57a22.09,22.09,0,0,1-2.32-.18,22.28,22.28,0,0,0-2.32-.18,19.8,19.8,0,0,0-2.43.13c-1.17.15-1.92.23-2.25.23-1.29,0-1.93-.52-1.93-1.57a1.4,1.4,0,0,1,.47-1,1.57,1.57,0,0,1,1.11-.45,3.69,3.69,0,0,1,1,.16,4.06,4.06,0,0,0,1,.15c.57,0,.93-.36,1.08-1.07a36.37,36.37,0,0,0,.28-5.21V34.46a.71.71,0,0,0-.8-.8h-2.23c-1,0-1.55-.56-1.55-1.66a1.41,1.41,0,0,1,1.62-1.57h2.55a.52.52,0,0,0,.58-.59V29A7.35,7.35,0,0,1,109,23.61a7.19,7.19,0,0,1,5.34-1.88,8,8,0,0,1,4.53,1.14,3.54,3.54,0,0,1,1.7,3.07,2.09,2.09,0,0,1-.63,1.59,2.31,2.31,0,0,1-3.07,0A1.81,1.81,0,0,1,116.22,26.21Z"/><path d="M127.75,53.48a9.46,9.46,0,0,1-7.53-3.25,12.81,12.81,0,0,1-2.83-8.72,12.78,12.78,0,0,1,2.85-8.73,9.65,9.65,0,0,1,7.65-3.25,9.79,9.79,0,0,1,7.71,3.18c1.88,2.13,2.83,5,2.83,8.66a12.85,12.85,0,0,1-2.92,8.79A9.79,9.79,0,0,1,127.75,53.48Zm.25-21a6,6,0,0,0-5,2.2,10.33,10.33,0,0,0-2,6.23v.59a10.86,10.86,0,0,0,1.78,6.61,5.82,5.82,0,0,0,5,2.4,6.16,6.16,0,0,0,5.15-2.4,10.63,10.63,0,0,0,1.87-6.66Q134.84,32.49,128,32.49Z"/><path d="M160.27,51.6V50.21a8.15,8.15,0,0,1-7,3.27q-5.29,0-7.36-3.27a6.84,6.84,0,0,1-1-3.37c0-.62,0-1.94,0-3.94V39.17q0-6.14-1.31-6.14a7.16,7.16,0,0,0-.86.07c-.4,0-.7.06-.91.06-1.06,0-1.59-.48-1.59-1.45s.65-1.42,1.93-1.42a10.79,10.79,0,0,1,1.33.12,7.43,7.43,0,0,0,2.71,0l.76-.09c.93,0,1.39.57,1.39,1.71v3.85l-.13,3.32v2.92a17.67,17.67,0,0,0,.63,5.6c.68,1.89,2.33,2.83,4.93,2.83a6.6,6.6,0,0,0,3.41-.87,4.77,4.77,0,0,0,2.06-2.31q.72-1.76.72-6.64V35.32q-.22-2.16-1.17-2.16H157.4c-1.05,0-1.57-.45-1.57-1.35s.58-1.52,1.75-1.52q.4,0,1.23.09c.55.06,1,.09,1.23.09a9.55,9.55,0,0,0,1.08-.09,9.55,9.55,0,0,1,1.08-.09c.89,0,1.34.48,1.34,1.44a4.27,4.27,0,0,1-.09,1,42,42,0,0,0-.22,5v6.92c0,1.83,0,2.84,0,3,.15,1.59.57,2.39,1.26,2.39a6.38,6.38,0,0,0,.9-.09,6.14,6.14,0,0,1,.89-.09c1,0,1.53.48,1.53,1.46s-.63,1.5-1.89,1.5a10.86,10.86,0,0,1-1.16-.09c-.75-.09-1.21-.14-1.39-.14l-.94.09a4,4,0,0,1-.95.14A1.13,1.13,0,0,1,160.27,51.6Z"/><path d="M176.46,31.57V32.8a7.82,7.82,0,0,1,11.32-1.5,5.88,5.88,0,0,1,2,4.55,5,5,0,0,1-1,3.21,3.18,3.18,0,0,1-2.6,1.23,2.55,2.55,0,0,1-1.75-.62,2,2,0,0,1-.72-1.53,1.8,1.8,0,0,1,.54-1.28,1.7,1.7,0,0,1,1.25-.56,2.9,2.9,0,0,1,.59.14,2.24,2.24,0,0,0,.27-1,2.69,2.69,0,0,0-1.15-2.2,5,5,0,0,0-7.51,2.25,17.69,17.69,0,0,0-.72,5.83v3c0,2,0,3.12.05,3.36.15,1.7.62,2.56,1.4,2.56a4.82,4.82,0,0,0,1.22-.16,4.3,4.3,0,0,1,.86-.11,1.26,1.26,0,0,1,1.45,1.41c0,1-.61,1.55-1.84,1.55h-.18a18.4,18.4,0,0,1-2-.16c-.91-.1-1.59-.16-2-.16q-1.8,0-2.82.09l-2.52.23c-1.22,0-1.83-.52-1.83-1.57s.57-1.39,1.71-1.39a3.82,3.82,0,0,1,.68,0l.68.14a3.87,3.87,0,0,0,.64.09c.75,0,1.16-.69,1.22-2.07V45.86l-.14-10.18c-.08-1.77-.53-2.65-1.34-2.65a6.53,6.53,0,0,0-1,.11,5.45,5.45,0,0,1-1,.11q-1.47,0-1.47-1.41c0-1,.64-1.55,1.92-1.55a11.21,11.21,0,0,1,1.35.12,13.09,13.09,0,0,0,1.35.11,10.74,10.74,0,0,0,1.16-.11,2.68,2.68,0,0,1,.85-.12C176.07,30.29,176.46,30.72,176.46,31.57Z"/><path d="M199.06,31.64v1.3a10.57,10.57,0,0,1,3.05-2.67,7.86,7.86,0,0,1,3.59-.74,7,7,0,0,1,6.46,3.41,9.45,9.45,0,0,1,3.1-2.65,9.2,9.2,0,0,1,4-.76,9.56,9.56,0,0,1,4.58,1.08A6.45,6.45,0,0,1,227,34a13.61,13.61,0,0,1,.58,4.66v7.71c0,1.23,0,2,.05,2.25.15,1.07.53,1.61,1.15,1.61a4.47,4.47,0,0,0,.94-.15,3.88,3.88,0,0,1,.93-.16c1,0,1.55.45,1.55,1.36,0,1.07-.59,1.6-1.79,1.6a18.4,18.4,0,0,1-2-.16c-.91-.1-1.61-.16-2.09-.16s-1.24.06-2.22.16a21,21,0,0,1-2.22.16c-1.25,0-1.88-.53-1.88-1.6,0-.91.48-1.36,1.44-1.36.11,0,.41,0,.89.11a2,2,0,0,0,.72.11.91.91,0,0,0,1-.76,21.22,21.22,0,0,0,.25-3.81v-5.7a15.76,15.76,0,0,0-.47-4.51A4.06,4.06,0,0,0,222,33.16a5.46,5.46,0,0,0-2.95-.8q-3.18,0-4.42,2.19c-.66,1.17-1,3.2-1,6.1v3.19a38.43,38.43,0,0,0,.2,5.27q.19,1.05,1,1a4.5,4.5,0,0,0,.79-.11,4.3,4.3,0,0,1,.78-.11,1.44,1.44,0,0,1,1.48,1.48c0,1-.7,1.48-2.11,1.48a16.2,16.2,0,0,1-2-.18,16.17,16.17,0,0,0-2-.18,13.06,13.06,0,0,0-2.06.18,12.71,12.71,0,0,1-2,.18c-1.23,0-1.84-.52-1.84-1.55s.44-1.41,1.34-1.41a1.88,1.88,0,0,1,.76.12,3.53,3.53,0,0,0,.95.19c.71,0,1.09-.76,1.12-2.29l.13-2.11V39.33c0-2.61-.35-4.43-1-5.44s-2-1.53-3.75-1.53a5.26,5.26,0,0,0-4.53,2.16c-.86,1.16-1.3,3.2-1.3,6.11v6c0,1.2,0,1.9.05,2.11.12,1,.45,1.53,1,1.53a3.71,3.71,0,0,0,1-.25,1,1,0,0,0,.26-.06h.32c1.16,0,1.75.5,1.75,1.5s-.68,1.46-2,1.46a16.17,16.17,0,0,1-1.88-.14,22.87,22.87,0,0,0-2.61-.18c-.36,0-1,.05-2,.14-1.29.12-2.06.18-2.33.18-1.2,0-1.8-.52-1.8-1.55s.58-1.41,1.74-1.41h.27a1.3,1.3,0,0,0,.28,0l1.14.23a.26.26,0,0,0,.18,0c.83,0,1.27-.73,1.33-2.19V38.67a32.65,32.65,0,0,0-.2-4.75,1.05,1.05,0,0,0-1.1-.94,12,12,0,0,0-1.26.23,3.87,3.87,0,0,1-.72.09c-1.1,0-1.66-.48-1.66-1.44s.62-1.52,1.84-1.52q.5,0,1.35.09a14.35,14.35,0,0,0,1.48.09h.81l1.07-.18H198C198.7,30.34,199.06,30.77,199.06,31.64Z"/><path d="M241.22,39.71v5.83c0,1.5,0,2.38.05,2.65.15,1.34.55,2,1.21,2A9.07,9.07,0,0,0,243.6,50a1.93,1.93,0,0,1,.67-.08c1.14,0,1.71.48,1.71,1.46a1.33,1.33,0,0,1-.56,1.06,2.27,2.27,0,0,1-1.42.44,18.33,18.33,0,0,1-2.18-.2,17.09,17.09,0,0,0-2.19-.21,21.22,21.22,0,0,0-2.61.18c-1.17.15-2,.23-2.34.23q-1.8,0-1.8-1.5c0-1,.51-1.46,1.54-1.46a7.87,7.87,0,0,1,1.06.11,8.15,8.15,0,0,0,1.07.11c.72,0,1.16-.95,1.31-2.87V35.81c-.15-1.88-.6-2.83-1.36-2.83a5.13,5.13,0,0,0-1,.16,4.3,4.3,0,0,1-1,.16c-1.09,0-1.63-.48-1.63-1.44s.66-1.52,2-1.52a11.58,11.58,0,0,1,1.21,0c1,.12,1.57.18,1.84.18a8.89,8.89,0,0,0,1.09-.11,9,9,0,0,1,1.1-.11c.87,0,1.3.58,1.3,1.75,0,.12,0,.3,0,.53a4.51,4.51,0,0,0,0,.54c0,.24-.05,1.17-.07,2.78C241.24,37.17,241.22,38.43,241.22,39.71Z"/><path d="M247.77,40.74c0-1,.6-1.57,1.8-1.57h7q1.8,0,1.8,1.53c0,1.07-.6,1.61-1.8,1.61h-7C248.37,42.31,247.77,41.79,247.77,40.74Z"/><path d="M282.08,39.5a5.45,5.45,0,0,1-.22,2.07c-.15.26-.59.38-1.31.38h-14.3a1.27,1.27,0,0,0-.76.16.67.67,0,0,0-.18.52,8.13,8.13,0,0,0,2,5.64,6.5,6.5,0,0,0,5,2.25A6.44,6.44,0,0,0,276,49.44a4.9,4.9,0,0,0,2.14-2.73l.4-1.3A1.4,1.4,0,0,1,280,44.33,1.49,1.49,0,0,1,281.68,46q0,2.91-3,5.18A10.78,10.78,0,0,1,272,53.48a9.47,9.47,0,0,1-7.49-3.16,12.43,12.43,0,0,1-2.78-8.5,13.07,13.07,0,0,1,3-8.88,9.75,9.75,0,0,1,7.72-3.41,9.29,9.29,0,0,1,7,2.82A9.84,9.84,0,0,1,282.08,39.5ZM265.8,38.37c0,.41.33.62,1,.62h10.76c.63,0,.95-.21.95-.62a5.61,5.61,0,0,0-1.8-4.13,5.9,5.9,0,0,0-4.24-1.75,6.81,6.81,0,0,0-4.59,1.82A5.32,5.32,0,0,0,265.8,38.37Z"/><path class="cls-17" d="M108.16,15.36a2.57,2.57,0,1,1,2.57,2.57A2.57,2.57,0,0,1,108.16,15.36Z"/><path class="cls-18" d="M35,60.91a2.57,2.57,0,1,1,2.56,2.56A2.57,2.57,0,0,1,35,60.91Z"/><path class="cls-19" d="M22.6,54.35a2.57,2.57,0,1,1,2.57,2.57A2.58,2.58,0,0,1,22.6,54.35Z"/><path class="cls-20" d="M8.15,60.42A2.57,2.57,0,1,1,10.72,63,2.57,2.57,0,0,1,8.15,60.42Z"/><path class="cls-21" d="M45.7,66.16a2.57,2.57,0,1,1,2.56,2.57A2.57,2.57,0,0,1,45.7,66.16Z"/><circle class="cls-22" cx="50.83" cy="62.05" r="2.57"/><path class="cls-23" d="M45.7,55.29a2.57,2.57,0,1,1,2.56,2.56A2.57,2.57,0,0,1,45.7,55.29Z"/><path class="cls-24" d="M57.47,58.34A2.57,2.57,0,1,1,60,60.91,2.57,2.57,0,0,1,57.47,58.34Z"/><circle class="cls-25" cx="119" cy="15.36" r="2.57"/><path class="cls-26" d="M122.84,20.16a2.57,2.57,0,1,1,2.57,2.57A2.57,2.57,0,0,1,122.84,20.16Z"/><circle class="cls-27" cx="126.74" cy="12.79" r="2.57"/><path class="cls-28" d="M131.38,24.8a2.57,2.57,0,1,1,2.56,2.57A2.57,2.57,0,0,1,131.38,24.8Z"/><circle class="cls-29" cx="127.97" cy="31.14" r="2.57"/><circle class="cls-30" cx="140.35" cy="33.71" r="2.57"/><path class="cls-31" d="M136.45,38.84A2.57,2.57,0,1,1,139,41.41,2.56,2.56,0,0,1,136.45,38.84Z"/><path class="cls-32" d="M144.72,45.51a2.57,2.57,0,1,1,2.56,2.57A2.57,2.57,0,0,1,144.72,45.51Z"/><path class="cls-33" d="M128.81,37.14a2.57,2.57,0,1,1,2.57,2.57A2.56,2.56,0,0,1,128.81,37.14Z"/><path class="cls-34" d="M140.35,55.29a2.57,2.57,0,1,1,2.56,2.56A2.57,2.57,0,0,1,140.35,55.29Z"/><path class="cls-35" d="M154.59,59.49a2.57,2.57,0,1,1,2.57,2.56A2.57,2.57,0,0,1,154.59,59.49Z"/><path class="cls-36" d="M167.93,66.16a2.57,2.57,0,1,1,2.57,2.57A2.57,2.57,0,0,1,167.93,66.16Z"/><path class="cls-37" d="M173.75,61.19a2.57,2.57,0,1,1,2.57,2.57A2.57,2.57,0,0,1,173.75,61.19Z"/><path class="cls-38" d="M180.47,66.16A2.57,2.57,0,1,1,183,68.73,2.57,2.57,0,0,1,180.47,66.16Z"/><path class="cls-39" d="M186.61,60.91a2.57,2.57,0,1,1,2.56,2.56A2.56,2.56,0,0,1,186.61,60.91Z"/><circle class="cls-40" cx="225.99" cy="31.14" r="2.57"/><path class="cls-41" d="M226,26.4A2.57,2.57,0,1,1,228.56,29,2.57,2.57,0,0,1,226,26.4Z"/><path class="cls-42" d="M216.49,22.23a2.57,2.57,0,1,1,2.57,2.57A2.57,2.57,0,0,1,216.49,22.23Z"/><path class="cls-43" d="M219.06,16.43A2.57,2.57,0,1,1,221.62,19,2.56,2.56,0,0,1,219.06,16.43Z"/><path class="cls-44" d="M221.62,37.14a2.57,2.57,0,1,1,2.57,2.57A2.56,2.56,0,0,1,221.62,37.14Z"/><path class="cls-45" d="M245.94,48.08a2.57,2.57,0,1,1,2.56,2.56A2.57,2.57,0,0,1,245.94,48.08Z"/><path class="cls-46" d="M268.08,54.35a2.57,2.57,0,1,1,2.57,2.57A2.58,2.58,0,0,1,268.08,54.35Z"/><path class="cls-47" d="M282.49,52.72a2.57,2.57,0,1,1,2.57,2.57A2.57,2.57,0,0,1,282.49,52.72Z"/><path class="cls-48" d="M258.43,52.19A2.57,2.57,0,1,1,261,54.76,2.57,2.57,0,0,1,258.43,52.19Z"/><path class="cls-49" d="M270.65,56.92a2.57,2.57,0,1,1,2.57,2.57A2.57,2.57,0,0,1,270.65,56.92Z"/><circle class="cls-50" cx="257.04" cy="56.92" r="2.57"/><path class="cls-51" d="M263.45,57.85A2.57,2.57,0,1,1,266,60.42,2.56,2.56,0,0,1,263.45,57.85Z"/><path class="cls-52" d="M274.92,56.92a2.57,2.57,0,1,1,2.57,2.57A2.57,2.57,0,0,1,274.92,56.92Z"/><path class="cls-53" d="M292.57,45.51a2.57,2.57,0,1,1,2.57,2.57A2.57,2.57,0,0,1,292.57,45.51Z"/><path class="cls-54" d="M302.71,39.71a2.57,2.57,0,1,1,2.57,2.56A2.57,2.57,0,0,1,302.71,39.71Z"/><path class="cls-55" d="M300.15,44.84a2.57,2.57,0,1,1,2.57,2.57A2.58,2.58,0,0,1,300.15,44.84Z"/><path class="cls-56" d="M317.28,29.94a2.57,2.57,0,1,1,2.57,2.56A2.57,2.57,0,0,1,317.28,29.94Z"/><path class="cls-57" d="M285.06,55.29a2.57,2.57,0,1,1,2.56,2.56A2.57,2.57,0,0,1,285.06,55.29Z"/><path class="cls-58" d="M227.79,34.58a2.57,2.57,0,1,1,2.57,2.56A2.58,2.58,0,0,1,227.79,34.58Z"/><path class="cls-59" d="M230.36,42.27a2.57,2.57,0,1,1,2.57,2.57A2.57,2.57,0,0,1,230.36,42.27Z"/><path class="cls-60" d="M238.63,41.41A2.57,2.57,0,1,1,241.2,44,2.57,2.57,0,0,1,238.63,41.41Z"/><path class="cls-61" d="M241.2,52.72a2.57,2.57,0,1,1,2.57,2.57A2.57,2.57,0,0,1,241.2,52.72Z"/><path class="cls-62" d="M248.5,56.92a2.57,2.57,0,1,1,2.57,2.57A2.57,2.57,0,0,1,248.5,56.92Z"/><circle class="cls-63" cx="164.09" cy="63.47" r="2.57"/><path class="cls-64" d="M158.06,66.16a2.57,2.57,0,1,1,2.56,2.57A2.57,2.57,0,0,1,158.06,66.16Z"/><path class="cls-65" d="M150.05,63.59a2.57,2.57,0,1,1,2.57,2.57A2.58,2.58,0,0,1,150.05,63.59Z"/><path class="cls-66" d="M145.78,56.92a2.57,2.57,0,1,1,2.57,2.57A2.57,2.57,0,0,1,145.78,56.92Z"/><path class="cls-67" d="M173.75,71.29a2.57,2.57,0,1,1,2.57,2.57A2.56,2.56,0,0,1,173.75,71.29Z"/><path class="cls-68" d="M236.43,25.61A2.57,2.57,0,1,1,239,28.18,2.55,2.55,0,0,1,236.43,25.61Z"/></svg>